<svg width="75" height="75" viewBox="0 0 75 75" fill="none" xmlns="http://www.w3.org/2000/svg">
<g clip-path="url(#clip0_7_10)">
<path d="M13.6946 0C6.10837 0 0 6.10837 0 13.6946V61.3055C0 68.8917 6.10837 75.0001 13.6946 75.0001H39.4993V45.6797H31.7462V35.1235H39.4993V26.1047C39.4993 19.0191 44.0802 12.5133 54.6329 12.5133C58.9055 12.5133 62.0649 12.9235 62.0649 12.9235L61.8164 22.7813C61.8164 22.7813 58.5942 22.7509 55.0781 22.7509C51.2727 22.7509 50.6625 24.5042 50.6625 27.415V35.1236H62.1188L61.6196 45.6798H50.6625V75.0002H61.3055C68.8916 75.0002 75 68.8918 75 61.3056V13.6946C75 6.10845 68.8916 7.5e-05 61.3055 7.5e-05H13.6945L13.6946 0Z" fill="#EEEEEE" fill-opacity="0.933333"/>
</g>
<defs>
<clipPath id="clip0_7_10">
<rect width="75" height="75" fill="white"/>
</clipPath>
</defs>
</svg>
