<svg width="92" height="92" viewBox="0 0 92 92" fill="none" xmlns="http://www.w3.org/2000/svg">
<path d="M84.3671 36.8981C84.5567 31.4113 83.3568 25.9655 80.8788 21.0665C79.1975 19.0562 76.8642 17.6997 74.2855 17.2331C63.6193 16.2653 52.909 15.8686 42.2005 16.0448C31.5309 15.8606 20.8592 16.2445 10.2305 17.1948C8.1291 17.577 6.18445 18.5627 4.63379 20.0315C1.18379 23.2131 0.800461 28.6565 0.417128 33.2565C-0.139043 41.5271 -0.139043 49.8258 0.417128 58.0965C0.528027 60.6855 0.913521 63.2555 1.56713 65.7631C2.02933 67.6992 2.96446 69.4904 4.28879 70.9765C5.84999 72.523 7.83993 73.5647 10.0005 73.9664C18.2648 74.9866 26.592 75.4093 34.9171 75.2314C48.3338 75.4231 60.1021 75.2315 74.0171 74.1581C76.2307 73.7811 78.2767 72.738 79.8821 71.1681C80.9553 70.0945 81.7569 68.7803 82.2205 67.3348C83.5914 63.1282 84.2647 58.7255 84.2138 54.3015C84.3671 52.1548 84.3671 39.1981 84.3671 36.8981ZM33.5371 56.6015V32.8731L56.2305 44.7948C49.8671 48.3215 41.4721 52.3081 33.5371 56.6015Z" fill="#EEEEEE"/>
</svg>
